HIERARCHY
ROOT Hips
{
    OFFSET   0.000000   0.000000   0.000000
    CHANNELS 6 Xposition Yposition Zposition Zrotation Xrotation Yrotation
    JOINT Chest
    {
        OFFSET   0.000000   8.007230   0.000000
        CHANNELS 3 Zrotation Xrotation Yrotation
        JOINT Chest2
        {
            OFFSET   0.000000  22.077100   0.000000
            CHANNELS 3 Zrotation Xrotation Yrotation
            JOINT Neck
            {
                OFFSET   0.000000  23.254800  -0.000021
                CHANNELS 3 Zrotation Xrotation Yrotation
                JOINT Head
                {
                    OFFSET   0.000000  14.370000   1.956610
                    CHANNELS 3 Zrotation Xrotation Yrotation
                    End Site
                    {
                        OFFSET   0.000000  19.566000   0.000000
                    }
                }
            }
            JOINT LeftCollar
            {
                OFFSET   3.911900  19.017000  -0.467063
                CHANNELS 3 Zrotation Xrotation Yrotation
                JOINT LeftShoulder
                {
                    OFFSET  10.383700   0.000000   0.000000
                    CHANNELS 3 Zrotation Xrotation Yrotation
                    JOINT LeftElbow
                    {
                        OFFSET  26.662100   0.001529   0.000325
                        CHANNELS 3 Zrotation Xrotation Yrotation
                        JOINT LeftWrist
                        {
                            OFFSET  28.869000  -0.000011  -0.000096
                            CHANNELS 3 Zrotation Xrotation Yrotation
                            JOINT LeftFinger0
                            {
                                OFFSET   2.044650  -2.323460   3.252850
                                CHANNELS 3 Zrotation Xrotation Yrotation
                                JOINT LeftFinger01
                                {
                                    OFFSET   3.088130   0.000000   0.000000
                                    CHANNELS 3 Zrotation Xrotation Yrotation
                                    JOINT LeftFinger02
                                    {
                                        OFFSET   2.639460   0.000000   0.000000
                                        CHANNELS 3 Zrotation Xrotation Yrotation
                                        End Site
                                        {
                                            OFFSET   2.582190   0.000000   0.000000
                                        }
                                    }
                                }
                            }
                            JOINT LeftFinger1
                            {
                                OFFSET   8.364480   0.000000   3.252850
                                CHANNELS 3 Zrotation Xrotation Yrotation
                                JOINT LeftFinger11
                                {
                                    OFFSET   4.646930   0.000000   0.000000
                                    CHANNELS 3 Zrotation Xrotation Yrotation
                                    JOINT LeftFinger12
                                    {
                                        OFFSET   2.323460   0.000000   0.000000
                                        CHANNELS 3 Zrotation Xrotation Yrotation
                                        End Site
                                        {
                                            OFFSET   2.273050   0.000000   0.000000
                                        }
                                    }
                                }
                            }
                            JOINT LeftFinger2
                            {
                                OFFSET   8.364480   0.000016   1.078090
                                CHANNELS 3 Zrotation Xrotation Yrotation
                                JOINT LeftFinger21
                                {
                                    OFFSET   5.111620   0.000000   0.000000
                                    CHANNELS 3 Zrotation Xrotation Yrotation
                                    JOINT LeftFinger22
                                    {
                                        OFFSET   2.788160   0.000017   0.000000
                                        CHANNELS 3 Zrotation Xrotation Yrotation
                                        End Site
                                        {
                                            OFFSET   2.727660   0.000000   0.000000
                                        }
                                    }
                                }
                            }
                            JOINT LeftFinger3
                            {
                                OFFSET   7.899780   0.000015  -1.078090
                                CHANNELS 3 Zrotation Xrotation Yrotation
                                JOINT LeftFinger31
                                {
                                    OFFSET   4.646920   0.000000   0.000000
                                    CHANNELS 3 Zrotation Xrotation Yrotation
                                    JOINT LeftFinger32
                                    {
                                        OFFSET   2.323470   0.000000   0.000000
                                        CHANNELS 3 Zrotation Xrotation Yrotation
                                        End Site
                                        {
                                            OFFSET   2.273050   0.000000   0.000000
                                        }
                                    }
                                }
                            }
                            JOINT LeftFinger4
                            {
                                OFFSET   7.435090   0.000000  -3.252850
                                CHANNELS 3 Zrotation Xrotation Yrotation
                                JOINT LeftFinger41
                                {
                                    OFFSET   3.717550   0.000000   0.000000
                                    CHANNELS 3 Zrotation Xrotation Yrotation
                                    JOINT LeftFinger42
                                    {
                                        OFFSET   1.858760   0.000000   0.000000
                                        CHANNELS 3 Zrotation Xrotation Yrotation
                                        End Site
                                        {
                                            OFFSET   1.818440   0.000000   0.000000
                                        }
                                    }
                                }
                            }
                        }
                    }
                }
            }
            JOINT RightCollar
            {
                OFFSET  -3.911900  19.017000  -0.467062
                CHANNELS 3 Zrotation Xrotation Yrotation
                JOINT RightShoulder
                {
                    OFFSET -10.383700   0.000015   0.000000
                    CHANNELS 3 Zrotation Xrotation Yrotation
                    JOINT RightElbow
                    {
                        OFFSET -26.662100   0.001341   0.000385
                        CHANNELS 3 Zrotation Xrotation Yrotation
                        JOINT RightWrist
                        {
                            OFFSET -28.869000   0.000025  -0.000080
                            CHANNELS 3 Zrotation Xrotation Yrotation
                            JOINT RightFinger0
                            {
                                OFFSET  -2.044650  -2.323490   3.252850
                                CHANNELS 3 Zrotation Xrotation Yrotation
                                JOINT RightFinger01
                                {
                                    OFFSET  -3.088130   0.000000   0.000000
                                    CHANNELS 3 Zrotation Xrotation Yrotation
                                    JOINT RightFinger02
                                    {
                                        OFFSET  -2.639460   0.000000   0.000000
                                        CHANNELS 3 Zrotation Xrotation Yrotation
                                        End Site
                                        {
                                            OFFSET  -2.582190   0.000000   0.000000
                                        }
                                    }
                                }
                            }
                            JOINT RightFinger1
                            {
                                OFFSET  -8.364480   0.000000   3.252850
                                CHANNELS 3 Zrotation Xrotation Yrotation
                                JOINT RightFinger11
                                {
                                    OFFSET  -4.646930   0.000000   0.000000
                                    CHANNELS 3 Zrotation Xrotation Yrotation
                                    JOINT RightFinger12
                                    {
                                        OFFSET  -2.323470   0.000000   0.000000
                                        CHANNELS 3 Zrotation Xrotation Yrotation
                                        End Site
                                        {
                                            OFFSET  -2.273050   0.000000   0.000000
                                        }
                                    }
                                }
                            }
                            JOINT RightFinger2
                            {
                                OFFSET  -8.364480   0.000000   1.078090
                                CHANNELS 3 Zrotation Xrotation Yrotation
                                JOINT RightFinger21
                                {
                                    OFFSET  -5.111610   0.000000   0.000000
                                    CHANNELS 3 Zrotation Xrotation Yrotation
                                    JOINT RightFinger22
                                    {
                                        OFFSET  -2.788160   0.000000   0.000000
                                        CHANNELS 3 Zrotation Xrotation Yrotation
                                        End Site
                                        {
                                            OFFSET  -2.727660   0.000000   0.000000
                                        }
                                    }
                                }
                            }
                            JOINT RightFinger3
                            {
                                OFFSET  -7.899780   0.000000  -1.078090
                                CHANNELS 3 Zrotation Xrotation Yrotation
                                JOINT RightFinger31
                                {
                                    OFFSET  -4.646920   0.000000   0.000000
                                    CHANNELS 3 Zrotation Xrotation Yrotation
                                    JOINT RightFinger32
                                    {
                                        OFFSET  -2.323470   0.000000   0.000000
                                        CHANNELS 3 Zrotation Xrotation Yrotation
                                        End Site
                                        {
                                            OFFSET  -2.273050   0.000000   0.000000
                                        }
                                    }
                                }
                            }
                            JOINT RightFinger4
                            {
                                OFFSET  -7.435090   0.000000  -3.252850
                                CHANNELS 3 Zrotation Xrotation Yrotation
                                JOINT RightFinger41
                                {
                                    OFFSET  -3.717550   0.000000   0.000000
                                    CHANNELS 3 Zrotation Xrotation Yrotation
                                    JOINT RightFinger42
                                    {
                                        OFFSET  -1.858770   0.000000   0.000000
                                        CHANNELS 3 Zrotation Xrotation Yrotation
                                        End Site
                                        {
                                            OFFSET  -1.818440   0.000000   0.000000
                                        }
                                    }
                                }
                            }
                        }
                    }
                }
            }
        }
    }
    JOINT LeftHip
    {
        OFFSET   9.783010   0.000000   0.000000
        CHANNELS 3 Zrotation Xrotation Yrotation
        JOINT LeftKnee
        {
            OFFSET   0.000070 -41.789100   0.000028
            CHANNELS 3 Zrotation Xrotation Yrotation
            JOINT LeftAnkle
            {
                OFFSET   0.000087 -41.133200  -0.000100
                CHANNELS 3 Zrotation Xrotation Yrotation
                JOINT LeftToe
                {
                    OFFSET   0.000000  -6.358960  14.674500
                    CHANNELS 3 Zrotation Xrotation Yrotation
                    End Site
                    {
                        OFFSET   0.000000   0.000000   3.913200
                    }
                }
            }
        }
    }
    JOINT RightHip
    {
        OFFSET  -9.783020   0.000000   0.000000
        CHANNELS 3 Zrotation Xrotation Yrotation
        JOINT RightKnee
        {
            OFFSET   0.000044 -41.789100  -0.000870
            CHANNELS 3 Zrotation Xrotation Yrotation
            JOINT RightAnkle
            {
                OFFSET  -0.000090 -41.133200  -0.000245
                CHANNELS 3 Zrotation Xrotation Yrotation
                JOINT RightToe
                {
                    OFFSET   0.000000  -6.358960  14.674500
                    CHANNELS 3 Zrotation Xrotation Yrotation
                    End Site
                    {
                        OFFSET   0.000000   0.000000   3.913200
                    }
                }
            }
        }
    }
}
MOTION
Frames: 4
Frame Time:   0.016667
  2.417090  89.998900  -0.255396  -2.045900  -8.153430  -5.450900  -0.459519   8.165860   2.592400  -1.316500  16.301700   5.334070   0.849556  -5.894760   0.089751   1.437010 -11.945300   5.132040  -8.840980  -8.842900   2.846150 -65.497200  28.945200  -4.032340  -4.013560  -9.442440 -16.485900  17.326900   2.839060   8.896130  40.208500  31.086600 -70.052300 -24.418500   0.000161   0.000094  -7.209240  -0.004048   0.002720 -36.426700  11.235600 -14.806400 -31.000600   0.001931   0.005036 -21.700400  -0.003313   0.001499 -32.087400   0.441700  -0.704410 -48.135200  -0.006691   0.003524 -32.058100  -0.008193   0.006215 -28.772400   0.400291  -0.728727 -41.332000  -0.001918   0.001361 -27.527200  -0.001585   0.003242 -36.863300  -0.215903   0.287940 -55.295700  -0.003153  -0.000297 -36.826900  -0.001607   0.001398  13.286100  -4.792690  12.224900  41.621100  41.961300  31.882100  -6.917800  -0.130363 101.376000  10.686100 -38.962400  42.437700 -47.893100  47.627400  93.999100  30.087100   0.000993  -0.000458  10.043600   0.000239   0.000324  29.437300   8.461030  14.612800  24.974200   0.000247   0.000000  17.482000   0.000684  -0.000441  19.835300   3.323260   9.134870  20.100400   0.002276  -0.004260  13.386900   0.000420  -0.003846  27.792000  -2.044640  -3.885830  31.144000  -0.005426   0.001436  20.741900   0.000000  -0.003920  32.046100  -2.328360  -3.723640  48.185000   0.000144   0.002594  32.091200  -0.000298   0.004499   0.511343  10.931300   3.554370  -0.292754   0.273024  14.506300  -4.200550  -5.346180   6.198390   0.000000   0.000000   0.000000   0.701095   9.373940  -7.982600  -0.634904   2.841540  -8.086790  -6.939190  -0.136021   2.259880   0.000000   0.000000   0.000000
  2.407240  90.002200  -0.241043  -2.046070  -8.148510  -5.435950  -0.455433   8.168470   2.592120  -1.308350  16.307100   5.333220   0.820002  -5.932610   0.089167   1.387960 -12.022300   5.132730  -8.834330  -8.871340   2.846830 -65.538800  28.885500  -4.024860  -4.012570  -9.429320 -16.495100  17.261500   2.925510   8.895950  40.250800  31.157900 -70.149500 -24.393900   0.000122   0.000086  -7.196970  -0.004056   0.002774 -36.410100  11.235300 -14.813400 -30.987700   0.001112   0.005066 -21.691300  -0.003397   0.001549 -32.073200   0.454735  -0.725622 -48.114100  -0.006762   0.003605 -32.044000  -0.008308   0.006256 -28.772400   0.412255  -0.750562 -41.286600  -0.002185   0.001369 -27.497000  -0.001619   0.003221 -36.833200  -0.208233   0.278006 -55.250400  -0.003177  -0.000260 -36.796800  -0.001627   0.001427  13.278600  -4.756550  12.224400  41.940200  42.018900  31.760200  -7.000500   0.081002 101.144000   9.830390 -39.840700  42.119800 -47.857700  47.598100  93.950900  30.233400   0.000941  -0.000483  10.116700   0.000192   0.000320  29.569100   8.469650  14.530000  25.079300   0.000271   0.000069  17.555500   0.000687  -0.000422  19.948600   3.390740   9.253740  20.226000   0.002342  -0.004550  13.470500   0.000392  -0.003871  27.778100  -2.241800  -4.255530  31.166400  -0.006586   0.001379  20.756800  -0.000077  -0.003806  32.082300  -2.555400  -4.075930  48.266800   0.000075   0.002591  32.145700  -0.000375   0.004452   0.525092  10.979800   3.555580  -0.297055   0.233383  14.499600  -4.211760  -5.361350   6.183470   0.000000   0.000000   0.000000   0.709208   9.414480  -7.967280  -0.623041   2.797720  -8.107860  -6.943080  -0.136024   2.249640  -0.000000   0.000000   0.000000
  2.398200  90.007800  -0.228202  -2.050790  -8.145970  -5.423550  -0.447138   8.174920   2.590030  -1.291490  16.320400   5.327700   0.792413  -5.997000   0.088610   1.341730 -12.153600   5.135140  -8.827500  -8.903420   2.847540 -65.574300  28.856500  -4.022680  -4.020340  -9.424580 -16.499000  17.191200   3.055580   8.890970  40.280000  31.193800 -70.199100 -24.369400   0.000082   0.000078  -7.184700  -0.004067   0.002829 -36.393500  11.235000 -14.820400 -30.974700   0.000078   0.005097 -21.682200  -0.003480   0.001601 -32.059000   0.467770  -0.746835 -48.093000  -0.006833   0.003685 -32.029900  -0.008422   0.006296 -28.772300   0.424218  -0.772398 -41.241200  -0.002257   0.001377 -27.466700  -0.001655   0.003202 -36.803000  -0.200563   0.268072 -55.205200  -0.003199  -0.000219 -36.766700  -0.001651   0.001456  13.276700  -4.746480  12.224400  42.154100  42.096700  31.715100  -6.929570   0.179453 100.881000   9.090560 -40.578200  41.862200 -47.841700  47.585000  93.929300  30.371000   0.000894  -0.000523  10.185500   0.000142   0.000311  29.783000   8.478260  14.447200  25.248200   0.000294   0.000122  17.673700   0.000691  -0.000402  20.177700   3.450190   9.301240  20.457900   0.002418  -0.004848  13.624900   0.000358  -0.003898  27.785500  -2.434070  -4.610590  31.270900  -0.007701   0.001321  20.826400  -0.000147  -0.003695  32.211800  -2.782300  -4.410250  48.479900   0.000000   0.002586  32.287700  -0.000449   0.004402   0.540739  11.028400   3.556370  -0.301380   0.193737  14.497300  -4.218290  -5.369140   6.174170  -0.000000   0.000000  -0.000000   0.719509   9.454990  -7.953200  -0.611531   2.753960  -8.122250  -6.949090  -0.136038   2.238920  -0.000000   0.000000   0.000000
  2.390540  90.013100  -0.223217  -2.060880  -8.145340  -5.418910  -0.436412   8.187680   2.584870  -1.269630  16.346500   5.315750   0.778592  -6.053380   0.088098   1.313110 -12.268200   5.168030  -8.834510  -8.939060   2.864800 -65.569400  28.909300  -4.024370  -4.057940  -9.442980 -16.512100  17.159100   3.140790   8.870000  40.257500  31.175300 -70.190400 -24.382600   0.000043   0.000033  -7.191290  -0.004091   0.002900 -36.402000  11.235200 -14.816800 -30.981300  -0.000249   0.005125 -21.686900  -0.003561   0.001657 -32.065400   0.457742  -0.730650 -48.102500  -0.006905   0.003773 -32.036200  -0.008536   0.006336 -28.772700   0.415055  -0.755716 -41.247000  -0.002281   0.001389 -27.470500  -0.001696   0.003183 -36.804900  -0.201049   0.268701 -55.208000  -0.003217  -0.000177 -36.768600  -0.001678   0.001485  13.309100  -4.743520  12.266900  42.143300  42.182300  31.773500  -6.750290   0.206312 100.588000   8.421220 -41.132000  41.616200 -47.781600  47.535900  93.848300  30.403100   0.000857  -0.000550  10.201600   0.000056   0.000304  29.821600   8.594420  14.556300  25.309700   0.000323   0.000172  17.716800   0.000694  -0.000406  20.291400   3.535730   9.426360  20.583400   0.002536  -0.005230  13.708500   0.000320  -0.003932  27.798900  -2.595140  -4.907770  31.378100  -0.008761   0.001271  20.897800  -0.000206  -0.003596  32.305700  -2.973270  -4.702510  48.642700  -0.000118   0.002570  32.396100  -0.000494   0.004337   0.557088  11.015800   3.556720  -0.298383   0.205725  14.497900  -4.218080  -5.366970   6.174200   0.000000   0.000000  -0.000000   0.734632   9.434800  -7.949350  -0.608583   2.782130  -8.121690  -6.958800  -0.141810   2.227500   0.000000   0.000000   0.000000
